<mxfile host="app.diagrams.net" agent="Mozilla/5.0 (Windows NT 10.0; Win64; x64) AppleWebKit/537.36 (KHTML, like Gecko) Chrome/129.0.0.0 Safari/537.36" version="24.7.17">
  <diagram name="Halaman-1" id="gaAkGnh7c3uTmlVILsBj">
    <mxGraphModel dx="1050" dy="557" grid="1" gridSize="10" guides="1" tooltips="1" connect="1" arrows="1" fold="1" page="1" pageScale="1" pageWidth="827" pageHeight="1169" math="0" shadow="0">
      <root>
        <mxCell id="0" />
        <mxCell id="1" parent="0" />
        <mxCell id="bfWYOQBTPIbWpVeMVti4-2" value="Inisialisasi variabel" style="whiteSpace=wrap;strokeWidth=2;" vertex="1" parent="1">
          <mxGeometry x="121" y="118" width="195" height="48" as="geometry" />
        </mxCell>
        <mxCell id="bfWYOQBTPIbWpVeMVti4-3" value="Loop" style="whiteSpace=wrap;strokeWidth=2;" vertex="1" parent="1">
          <mxGeometry x="171" y="217" width="94" height="48" as="geometry" />
        </mxCell>
        <mxCell id="bfWYOQBTPIbWpVeMVti4-4" value="Baca nilai potensiometer dari pin A0" style="whiteSpace=wrap;strokeWidth=2;" vertex="1" parent="1">
          <mxGeometry x="21" y="315" width="240" height="66" as="geometry" />
        </mxCell>
        <mxCell id="bfWYOQBTPIbWpVeMVti4-5" value="Konversi nilai potensiometer 0-1023 menjadi nilai PWM 0-255" style="whiteSpace=wrap;strokeWidth=2;" vertex="1" parent="1">
          <mxGeometry x="22" y="431" width="237" height="84" as="geometry" />
        </mxCell>
        <mxCell id="bfWYOQBTPIbWpVeMVti4-6" value="Atur kecerahan LED pada pin 9" style="whiteSpace=wrap;strokeWidth=2;" vertex="1" parent="1">
          <mxGeometry x="20" y="565" width="241" height="66" as="geometry" />
        </mxCell>
        <mxCell id="bfWYOQBTPIbWpVeMVti4-7" value="Jeda 10ms" style="whiteSpace=wrap;strokeWidth=2;" vertex="1" parent="1">
          <mxGeometry x="151" y="681" width="135" height="48" as="geometry" />
        </mxCell>
        <mxCell id="bfWYOQBTPIbWpVeMVti4-8" value="" style="curved=1;startArrow=none;endArrow=block;exitX=0.5;exitY=1;entryX=0.5;entryY=0.01;rounded=0;exitDx=0;exitDy=0;" edge="1" parent="1" source="bfWYOQBTPIbWpVeMVti4-15" target="bfWYOQBTPIbWpVeMVti4-2">
          <mxGeometry relative="1" as="geometry">
            <Array as="points" />
            <mxPoint x="218.5" y="68" as="sourcePoint" />
          </mxGeometry>
        </mxCell>
        <mxCell id="bfWYOQBTPIbWpVeMVti4-9" value="" style="curved=1;startArrow=none;endArrow=block;exitX=0.5;exitY=1.02;entryX=0.5;entryY=0;rounded=0;" edge="1" parent="1" source="bfWYOQBTPIbWpVeMVti4-2" target="bfWYOQBTPIbWpVeMVti4-3">
          <mxGeometry relative="1" as="geometry">
            <Array as="points" />
          </mxGeometry>
        </mxCell>
        <mxCell id="bfWYOQBTPIbWpVeMVti4-10" value="" style="curved=1;startArrow=none;endArrow=block;exitX=0.1;exitY=1;entryX=0.5;entryY=0;rounded=0;" edge="1" parent="1" source="bfWYOQBTPIbWpVeMVti4-3" target="bfWYOQBTPIbWpVeMVti4-4">
          <mxGeometry relative="1" as="geometry">
            <Array as="points">
              <mxPoint x="141" y="290" />
            </Array>
          </mxGeometry>
        </mxCell>
        <mxCell id="bfWYOQBTPIbWpVeMVti4-11" value="" style="curved=1;startArrow=none;endArrow=block;exitX=0.5;exitY=1;entryX=0.5;entryY=0;rounded=0;" edge="1" parent="1" source="bfWYOQBTPIbWpVeMVti4-4" target="bfWYOQBTPIbWpVeMVti4-5">
          <mxGeometry relative="1" as="geometry">
            <Array as="points" />
          </mxGeometry>
        </mxCell>
        <mxCell id="bfWYOQBTPIbWpVeMVti4-12" value="" style="curved=1;startArrow=none;endArrow=block;exitX=0.5;exitY=1;entryX=0.5;entryY=0;rounded=0;" edge="1" parent="1" source="bfWYOQBTPIbWpVeMVti4-5" target="bfWYOQBTPIbWpVeMVti4-6">
          <mxGeometry relative="1" as="geometry">
            <Array as="points" />
          </mxGeometry>
        </mxCell>
        <mxCell id="bfWYOQBTPIbWpVeMVti4-13" value="" style="curved=1;startArrow=none;endArrow=block;exitX=0.5;exitY=1;entryX=0.22;entryY=0;rounded=0;" edge="1" parent="1" source="bfWYOQBTPIbWpVeMVti4-6" target="bfWYOQBTPIbWpVeMVti4-7">
          <mxGeometry relative="1" as="geometry">
            <Array as="points">
              <mxPoint x="141" y="656" />
            </Array>
          </mxGeometry>
        </mxCell>
        <mxCell id="bfWYOQBTPIbWpVeMVti4-14" value="" style="curved=1;startArrow=none;endArrow=block;exitX=0.78;exitY=0;entryX=0.91;entryY=1;rounded=0;" edge="1" parent="1" source="bfWYOQBTPIbWpVeMVti4-7" target="bfWYOQBTPIbWpVeMVti4-3">
          <mxGeometry relative="1" as="geometry">
            <Array as="points">
              <mxPoint x="296" y="656" />
              <mxPoint x="296" y="290" />
            </Array>
          </mxGeometry>
        </mxCell>
        <mxCell id="bfWYOQBTPIbWpVeMVti4-15" value="Mulai" style="ellipse;whiteSpace=wrap;html=1;" vertex="1" parent="1">
          <mxGeometry x="167.25" y="10" width="101.5" height="60" as="geometry" />
        </mxCell>
      </root>
    </mxGraphModel>
  </diagram>
</mxfile>
